<svg xmlns="http://www.w3.org/2000/svg">
  <symbol id="icon-back" viewBox="0 0 24 24"><path d="m14 6-6 6 6 6"/></symbol>
  <symbol id="icon-next" viewBox="0 0 24 24"><path d="m10 6 6 6-6 6"/></symbol>
  <symbol id="icon-eye-off" viewBox="0 0 24 24"><path d="m3 3 18 18M10.6 5.1A11 11 0 0 1 12 5c7 0 10 7 10 7a15 15 0 0 1-3 3.4M6.6 6.6A17 17 0 0 0 2 12s3 7 10 7a11 11 0 0 0 5.4-1.4M9.9 9.9a3 3 0 0 0 4.2 4.2"/></symbol>
  <symbol id="icon-sidebar" viewBox="0 0 24 24"><rect x="3" y="4" width="18" height="16" rx="2"/><path d="M9 4v16M5 8h2m-2 4h2m-2 4h2"/></symbol>
  <symbol id="icon-book-open" viewBox="0 0 24 24"><path d="M12 7C9 4 5 3 2 4v15c4-1 7 0 10 2 3-2 6-3 10-2V4c-1.4-.35-2.7-.42-4-.2M12 7v14M12 7c1.5-2.5 3.2-4 6-5v15c-2.8 1-4.5 2-6 4M5 10h4m-4 5h4M14 9l2-1m-2 5 2-1"/></symbol>
  <symbol id="icon-tools" viewBox="0 0 24 24"><rect x="3" y="7" width="18" height="14" rx="2"/><path d="M8 7V5a2 2 0 0 1 2-2h4a2 2 0 0 1 2 2v2M3 13h18M8 11v4m8-4v4"/></symbol>
  <symbol id="icon-download" viewBox="0 0 24 24"><path d="M14 2H5a1 1 0 0 0-1 1v18a1 1 0 0 0 1 1h14a1 1 0 0 0 1-1V8l-6-6ZM14 2v6h6M12 11v7m-3-3 3 3 3-3"/></symbol>
  <symbol id="icon-search" viewBox="0 0 24 24"><circle cx="10.5" cy="10.5" r="6.5"/><path d="m16 16 5 5"/></symbol>
  <symbol id="icon-expand" viewBox="0 0 24 24"><rect x="2" y="2" width="20" height="20" rx="1.5"/><path d="M13 7h4v4M7 13v4h4"/></symbol>
  <symbol id="icon-spread" viewBox="0 0 24 24"><path d="M7 19H3a1 1 0 0 1-1-1V3a1 1 0 0 1 1-1h9l4 4M12 2v4h4M16 6H8a1 1 0 0 0-1 1v14a1 1 0 0 0 1 1h12a1 1 0 0 0 1-1V11l-5-5ZM16 6v5h5"/></symbol>
  <symbol id="icon-close" viewBox="0 0 24 24"><path d="m6 6 12 12M6 18 18 6"/></symbol>
  <symbol id="icon-circle-x" viewBox="0 0 24 24"><circle cx="12" cy="12" r="9"/><path d="m9 9 6 6m-6 0 6-6"/></symbol>
  <symbol id="icon-file" viewBox="0 0 24 24"><path d="M14 3H5v18h14V8Z M14 3v5h5M8 13h8m-8 4h5"/></symbol>
  <symbol id="icon-circle-alert" viewBox="0 0 24 24"><circle cx="12" cy="12" r="9"/><path d="M12 7v6m0 3v.01"/></symbol>
  <symbol id="icon-save-image" viewBox="0 0 24 24"><path d="M12 3v12m-4-4 4 4 4-4M4 16v5h16v-5"/></symbol>
</svg>
